<svg width="24" height="24" viewBox="0 0 24 24" fill="none" xmlns="http://www.w3.org/2000/svg">
<path d="M21.75 5.96016C21.0328 6.26953 20.2523 6.49219 19.4484 6.57891C20.2831 6.08305 20.9081 5.29969 21.2062 4.37578C20.423 4.84169 19.565 5.1684 18.6703 5.34141C18.2963 4.94162 17.8441 4.62314 17.3416 4.4058C16.8392 4.18846 16.2974 4.07692 15.75 4.07813C13.5351 4.07813 11.7539 5.87344 11.7539 8.07656C11.7539 8.38594 11.7914 8.69531 11.8523 8.99297C8.53593 8.81953 5.57812 7.23516 3.61171 4.80938C3.25341 5.42136 3.06565 6.11819 3.06796 6.82734C3.06796 8.21484 3.77343 9.43828 4.84921 10.1578C4.21524 10.1328 3.59611 9.95859 3.04218 9.64922V9.69844C3.04218 11.6414 4.41562 13.2516 6.24609 13.6219C5.9024 13.7112 5.54884 13.7568 5.19374 13.7578C4.93359 13.7578 4.68749 13.732 4.43906 13.6969C4.94531 15.2813 6.41952 16.432 8.17499 16.4695C6.80156 17.5453 5.08124 18.1781 3.21328 18.1781C2.87812 18.1781 2.56874 18.1664 2.24765 18.1289C4.01952 19.2656 6.12187 19.9219 8.38593 19.9219C15.7359 19.9219 19.7578 13.8328 19.7578 8.54766C19.7578 8.37422 19.7578 8.20078 19.7461 8.02734C20.5242 7.45781 21.2062 6.75234 21.75 5.96016Z" fill="#091945" fill-opacity="0.6"/>
</svg>