<svg width="24" height="24" viewBox="0 0 24 24" fill="none" xmlns="http://www.w3.org/2000/svg">
<path d="M12 7.19297C9.33985 7.19297 7.19297 9.33984 7.19297 12C7.19297 14.6602 9.33985 16.807 12 16.807C14.6602 16.807 16.807 14.6602 16.807 12C16.807 9.33984 14.6602 7.19297 12 7.19297ZM12 15.1242C10.2797 15.1242 8.87579 13.7203 8.87579 12C8.87579 10.2797 10.2797 8.87578 12 8.87578C13.7203 8.87578 15.1242 10.2797 15.1242 12C15.1242 13.7203 13.7203 15.1242 12 15.1242ZM17.0039 5.87578C16.3828 5.87578 15.8813 6.37734 15.8813 6.99844C15.8813 7.61953 16.3828 8.12109 17.0039 8.12109C17.625 8.12109 18.1266 7.62188 18.1266 6.99844C18.1268 6.85096 18.0978 6.70489 18.0415 6.5686C17.9851 6.43231 17.9024 6.30847 17.7982 6.20419C17.6939 6.0999 17.57 6.01721 17.4338 5.96086C17.2975 5.90451 17.1514 5.8756 17.0039 5.87578ZM21.3703 12C21.3703 10.7063 21.382 9.42422 21.3094 8.13281C21.2367 6.63281 20.8945 5.30156 19.7977 4.20469C18.6984 3.10547 17.3695 2.76563 15.8695 2.69297C14.5758 2.62031 13.2938 2.63203 12.0023 2.63203C10.7086 2.63203 9.42657 2.62031 8.13516 2.69297C6.63516 2.76563 5.30391 3.10781 4.20704 4.20469C3.10782 5.30391 2.76797 6.63281 2.69532 8.13281C2.62266 9.42656 2.63438 10.7086 2.63438 12C2.63438 13.2914 2.62266 14.5758 2.69532 15.8672C2.76797 17.3672 3.11016 18.6984 4.20704 19.7953C5.30625 20.8945 6.63516 21.2344 8.13516 21.307C9.42891 21.3797 10.7109 21.368 12.0023 21.368C13.2961 21.368 14.5781 21.3797 15.8695 21.307C17.3695 21.2344 18.7008 20.8922 19.7977 19.7953C20.8969 18.6961 21.2367 17.3672 21.3094 15.8672C21.3844 14.5758 21.3703 13.2937 21.3703 12ZM19.3078 17.5266C19.1367 17.9531 18.9305 18.2719 18.6 18.6C18.2695 18.9305 17.9531 19.1367 17.5266 19.3078C16.2938 19.7977 13.3664 19.6875 12 19.6875C10.6336 19.6875 7.70391 19.7977 6.4711 19.3102C6.04454 19.1391 5.72579 18.9328 5.39766 18.6023C5.06719 18.2719 4.86094 17.9555 4.68985 17.5289C4.20235 16.2938 4.3125 13.3664 4.3125 12C4.3125 10.6336 4.20235 7.70391 4.68985 6.47109C4.86094 6.04453 5.06719 5.72578 5.39766 5.39766C5.72813 5.06953 6.04454 4.86094 6.4711 4.68984C7.70391 4.20234 10.6336 4.3125 12 4.3125C13.3664 4.3125 16.2961 4.20234 17.5289 4.68984C17.9555 4.86094 18.2742 5.06719 18.6023 5.39766C18.9328 5.72813 19.1391 6.04453 19.3102 6.47109C19.7977 7.70391 19.6875 10.6336 19.6875 12C19.6875 13.3664 19.7977 16.2937 19.3078 17.5266Z" fill="#091945" fill-opacity="0.6"/>
</svg>
